<svg width="67" height="45" viewBox="0 0 67 45" fill="none" xmlns="http://www.w3.org/2000/svg">
<rect x="0.5" y="0.5" width="66" height="44" rx="3.5" fill="#020813"/>
<rect x="0.5" y="0.5" width="66" height="44" rx="3.5" stroke="white"/>
<g filter="url(#filter0_b_54_205)">
<path d="M15.3526 16.76V23H11.4166V16.784L5.99257 6.368H10.3006L13.4566 13.532L16.6366 6.368H20.7766L15.3526 16.76Z" fill="white"/>
<path d="M49.5599 8.752V12.9725H55.1489V15.675H49.5599V22H45.7764V6.061H56.2529L55.8619 8.752H49.5599Z" fill="white"/>
<path d="M30.7342 11.928V19.7535H42.0142V25.1585H30.7342V33.4775H44.3407V39H23.0262V6.429H44.3172L43.5417 11.928H30.7342Z" fill="white"/>
<path d="M20.6566 22.368L18.7126 39H14.6206L13.4086 27.108L12.0766 39H7.91257L6.11257 22.368H9.79657L10.3606 35.64L11.7406 24.288H15.1246L16.4086 35.64L17.2366 22.368H20.6566Z" fill="white"/>
<path d="M53.588 34.1815C53.588 33.6218 53.4769 33.181 53.2545 32.859C53.0399 32.5293 52.7332 32.2955 52.3345 32.1575C51.9435 32.0195 51.4835 31.9505 50.9545 31.9505H49.402V36.2515H50.7935C51.1615 36.2515 51.5104 36.2247 51.84 36.171C52.1774 36.1173 52.4764 36.0177 52.737 35.872C53.0054 35.7263 53.2124 35.5193 53.358 35.251C53.5114 34.975 53.588 34.6185 53.588 34.1815ZM52.99 27.5115C52.99 26.8828 52.7907 26.4305 52.392 26.1545C52.001 25.8708 51.3915 25.729 50.5635 25.729H49.402V29.4205H50.6785C51.4912 29.4205 52.0777 29.271 52.438 28.972C52.806 28.673 52.99 28.1862 52.99 27.5115ZM57.475 34.331C57.475 35.251 57.2987 36.0138 56.946 36.6195C56.5934 37.2252 56.1104 37.7005 55.497 38.0455C54.8837 38.3905 54.1822 38.6358 53.3925 38.7815C52.6105 38.9272 51.7864 39 50.92 39H45.63V23.061H50.6785C51.4989 23.061 52.2732 23.13 53.0015 23.268C53.7375 23.3983 54.3892 23.6207 54.9565 23.935C55.5239 24.2417 55.9685 24.6595 56.2905 25.1885C56.6202 25.7098 56.785 26.3577 56.785 27.132C56.785 27.7683 56.6509 28.3203 56.3825 28.788C56.1142 29.248 55.7577 29.6275 55.313 29.9265C54.8684 30.2178 54.3854 30.4287 53.864 30.559C54.4314 30.651 54.991 30.8312 55.543 31.0995C56.1027 31.3602 56.5627 31.7512 56.923 32.2725C57.291 32.7938 57.475 33.48 57.475 34.331Z" fill="white"/>
</g>
<defs>
<filter id="filter0_b_54_205" x="1.99255" y="2.06097" width="59.4825" height="40.939" filterUnits="userSpaceOnUse" color-interpolation-filters="sRGB">
<feFlood flood-opacity="0" result="BackgroundImageFix"/>
<feGaussianBlur in="BackgroundImage" stdDeviation="2"/>
<feComposite in2="SourceAlpha" operator="in" result="effect1_backgroundBlur_54_205"/>
<feBlend mode="normal" in="SourceGraphic" in2="effect1_backgroundBlur_54_205" result="shape"/>
</filter>
</defs>
</svg>
